<?xml version="1.0" standalone="no"?>
<!DOCTYPE svg PUBLIC "-//W3C//DTD SVG 1.1//EN" "http://www.w3.org/Graphics/SVG/1.1/DTD/svg11.dtd" >
<svg xmlns="http://www.w3.org/2000/svg">
<metadata>Generated by IcoMoon</metadata>
<defs>
<font id="Golfsmith" horiz-adv-x="1024">
<font-face units-per-em="1024" ascent="960" descent="-64" />
<missing-glyph horiz-adv-x="1024" />
<glyph unicode="&#x20;" horiz-adv-x="512" d="" />
<glyph unicode="&#xea00;" glyph-name="googleplus" horiz-adv-x="970" d="M512 375.242l-45.811 37.726c-13.474 13.474-35.032 26.947-35.032 56.589s18.863 48.505 37.726 64.674c53.895 43.116 107.789 91.621 107.789 188.632 0 102.4-61.979 156.295-91.621 180.547h80.842l83.537 53.895h-256c-70.063 0-172.463-16.168-245.221-80.842-56.589-48.505-83.537-118.568-83.537-177.853 0-105.095 78.147-210.189 215.579-210.189 13.474 0 26.947 0 40.421 2.695-5.389-16.168-13.474-29.642-13.474-51.2 0-40.421 21.558-67.368 37.726-91.621-59.284-5.389-167.074-10.779-247.916-61.979-75.453-45.811-99.705-115.874-99.705-161.684 0-99.705 91.621-191.326 280.253-191.326 223.663 0 342.232 126.653 342.232 253.305 0 94.316-51.2 140.126-107.789 188.632zM342.232 528.842c-110.484 0-161.684 148.211-161.684 237.137 0 35.032 5.389 70.063 29.642 99.705 21.558 26.947 56.589 43.116 91.621 43.116 107.789 0 164.379-148.211 164.379-245.221 0-24.253-2.695-67.368-32.337-97.011-24.253-21.558-59.284-37.726-91.621-37.726zM342.232-7.411c-140.126 0-229.053 67.368-229.053 161.684s83.537 126.653 110.484 137.432c53.895 18.863 123.958 21.558 137.432 21.558s18.863 0 29.642 0c99.705-72.758 142.821-107.789 142.821-175.158 0-83.537-64.674-145.516-191.326-145.516zM840.758 531.537v132.042h-64.674v-132.042h-129.347v-67.368h129.347v-134.737h64.674v134.737h129.347v67.368z" />
<glyph unicode="&#xea01;" glyph-name="youtube" horiz-adv-x="862" d="M730.274 210.863h-56.589v32.337c0 13.474 10.779 26.947 26.947 26.947h2.695c13.474 0 26.947-10.779 26.947-26.947v-32.337zM517.389 280.926c-13.474 0-26.947-10.779-26.947-21.558v-158.989c0-10.779 10.779-21.558 26.947-21.558 13.474 0 26.947 10.779 26.947 21.558v158.989c0 10.779-13.474 21.558-26.947 21.558zM862.316 369.853v-301.811c0-72.758-64.674-132.042-140.126-132.042h-579.368c-78.147 0-140.126 59.284-140.126 132.042v301.811c0 72.758 64.674 132.042 140.126 132.042h579.368c78.147 0 140.126-59.284 140.126-132.042zM180.547 35.705v317.979h72.758v45.811h-191.326v-45.811h59.284v-317.979h59.284zM396.126 305.179h-59.284v-169.768c0-24.253 2.695-37.726 0-40.421-5.389-13.474-26.947-26.947-35.032-2.695-2.695 5.389 0 18.863 0 40.421v169.768h-59.284v-167.074c0-26.947 0-45.811 0-53.895 2.695-16.168 0-32.337 16.168-43.116 26.947-18.863 78.147 2.695 91.621 29.642v-35.032h48.505l-2.695 272.168zM587.453 111.158v140.126c0 53.895-40.421 86.232-97.011 43.116v105.095h-59.284v-363.789h48.505l5.389 21.558c64.674-53.895 102.4-13.474 102.4 53.895zM776.084 130.021h-45.811c0-2.695 0-2.695 0-5.389v-24.253c0-13.474-10.779-24.253-24.253-24.253h-8.084c-13.474 0-24.253 10.779-24.253 24.253v64.674h102.4v37.726c0 26.947 0 56.589-2.695 72.758-8.084 51.2-78.147 59.284-115.874 32.337-10.779-8.084-18.863-18.863-24.253-32.337s-8.084-35.032-8.084-59.284v-83.537c0-142.821 169.768-123.958 150.905-2.695zM544.337 588.126c2.695-8.084 8.084-13.474 13.474-18.863s13.474-5.389 24.253-5.389c8.084 0 16.168 2.695 24.253 8.084 5.389 5.389 13.474 10.779 16.168 21.558v-24.253h67.368v280.253h-53.895v-218.274c0-10.779-10.779-21.558-21.558-21.558s-21.558 10.779-21.558 21.558v218.274h-53.895v-188.632c0-24.253 0-40.421 0-48.505 0-10.779 2.695-16.168 5.389-24.253zM342.232 747.116c0 26.947 2.695 48.505 8.084 61.979 5.389 16.168 13.474 26.947 24.253 37.726 10.779 8.084 26.947 13.474 45.811 13.474 16.168 0 29.642-2.695 40.421-8.084s18.863-13.474 26.947-24.253c5.389-10.779 10.779-18.863 13.474-29.642s2.695-24.253 2.695-45.811v-70.063c0-26.947 0-45.811-2.695-56.589-2.695-13.474-5.389-24.253-13.474-35.032-5.389-10.779-16.168-18.863-26.947-24.253s-21.558-8.084-35.032-8.084c-16.168 0-26.947 2.695-37.726 5.389-10.779 5.389-18.863 10.779-24.253 18.863s-10.779 18.863-13.474 32.337c-2.695 13.474-2.695 29.642-2.695 56.589l-5.389 75.453zM396.126 633.937c0-16.168 10.779-29.642 26.947-29.642 13.474 0 26.947 13.474 26.947 29.642v150.905c0 16.168-10.779 29.642-26.947 29.642-13.474 0-26.947-13.474-26.947-29.642v-150.905zM210.189 558.484h61.979v215.579l75.453 185.937h-70.063l-40.421-137.432-40.421 137.432h-67.368l78.147-185.937 2.695-215.579z" />
<glyph unicode="&#xea02;" glyph-name="Cart" horiz-adv-x="1186" d="M1118.316 240.505h-654.821c-24.253 0-29.642 2.695-37.726 35.032 0 2.695-2.695 8.084-2.695 16.168l652.126 121.263c64.674 13.474 113.179 67.368 113.179 132.042v196.716c0 61.979-53.895 110.484-115.874 110.484h-781.474c-29.642 72.758-72.758 107.789-129.347 107.789h-121.263c-21.558 0-40.421-18.863-40.421-40.421s18.863-40.421 40.421-40.421h121.263c13.474 0 35.032 0 51.2-67.368v0c18.863-72.758 121.263-512 132.042-552.421 5.389-24.253 21.558-99.705 118.568-99.705h654.821c21.558 0 40.421 18.863 40.421 40.421s-18.863 40.421-40.421 40.421zM1102.147 542.316c0-26.947-18.863-48.505-45.811-53.895l-652.126-118.568-10.779 45.811c-26.947 115.874-61.979 272.168-86.232 358.4h759.916c18.863 0 32.337-13.474 32.337-32.337v0l2.695-199.411zM994.358 116.547c-51.2 0-94.316-40.421-94.316-91.621s43.116-91.621 94.316-91.621c51.2 0 94.316 40.421 94.316 91.621-2.695 51.2-43.116 91.621-94.316 91.621zM495.832 116.547c-51.2 0-94.316-40.421-94.316-91.621s43.116-91.621 94.316-91.621 94.316 40.421 94.316 91.621c0 51.2-43.116 91.621-94.316 91.621z" />
<glyph unicode="&#xea03;" glyph-name="Search" d="M745.244 302.933c51.2 68.267 82.489 153.6 82.489 244.622 0 227.556-184.889 412.444-412.444 412.444 0 0 0 0 0 0-110.933 0-216.178-42.667-292.978-119.467-79.644-76.8-122.311-182.044-122.311-290.133s42.667-213.333 119.467-290.133c76.8-76.8 182.044-122.311 292.978-122.311 0 0 0 0 0 0 91.022 0 176.356 28.444 244.622 79.644l275.911-278.756 5.689-2.844h2.844c0 0 0 0 0 0 22.756 0 42.667 8.533 56.889 22.756s25.6 36.978 25.6 56.889v2.844l-278.756 284.444zM412.444 248.889c0 0 0 0 0 0-164.978 2.844-298.667 136.533-298.667 301.511 0 79.644 31.289 153.6 88.178 210.489s130.844 85.333 210.489 85.333c0 0 0 0 0 0 167.822 0 301.511-133.689 298.667-298.667 0-164.978-133.689-298.667-298.667-298.667z" />
<glyph unicode="&#xea04;" glyph-name="Stores" horiz-adv-x="768" d="M384 960c-212.48 0-384-176.64-384-394.24 0-202.24 353.28-604.16 368.64-622.080 5.12-5.12 10.24-7.68 17.92-7.68 0 0 0 0 0 0 7.68 0 12.8 2.56 17.92 7.68 12.8 17.92 363.52 419.84 363.52 622.080 0 217.6-171.52 394.24-384 394.24zM384 870.4c163.84 0 296.96-135.68 296.96-304.64 0-122.88-174.080-345.6-266.24-465.92-10.24-12.8-20.48-25.6-28.16-38.4-7.68 10.24-17.92 23.040-30.72 38.4-94.72 120.32-268.8 343.040-268.8 465.92 0 168.96 133.12 304.64 296.96 304.64zM384 450.56c64 0 115.2 51.2 115.2 117.76s-51.2 117.76-115.2 117.76c-64 0-115.2-53.76-115.2-117.76s51.2-117.76 115.2-117.76z" />
<glyph unicode="&#xea05;" glyph-name="Menu" horiz-adv-x="1365" d="M85.333 792.747h1198.080c47.787 0 85.333 37.547 85.333 81.92s-40.96 85.333-88.747 85.333h-1194.667c-47.787 0-85.333-37.547-85.333-81.92s37.547-85.333 85.333-85.333zM1280 529.92h-1194.667c-47.787 0-85.333-37.547-85.333-81.92s37.547-81.92 85.333-81.92h1198.080c47.787 0 85.333 37.547 85.333 81.92s-40.96 81.92-88.747 81.92zM1280 103.253h-1194.667c-47.787 0-85.333-37.547-85.333-81.92s37.547-85.333 85.333-85.333h1198.080c47.787 0 85.333 37.547 85.333 81.92s-40.96 85.333-88.747 85.333z" />
<glyph unicode="&#xea06;" glyph-name="Fitting" horiz-adv-x="709" d="M673.477 855.631c-5.908 7.877-15.754 5.908-19.692-1.969l-61.046-122.092c-19.692-51.2-78.769-78.769-128-61.046-53.169 19.692-80.738 78.769-59.077 129.969l70.892 141.785c1.969 9.846-3.938 19.692-11.815 17.723-64.985-3.938-126.031-35.446-165.415-90.585-49.231-66.954-53.169-157.538-21.662-230.4l7.877-11.815 3.938-3.938c3.938-5.908 3.938-15.754 0-23.631l-273.723-498.215c-35.446-55.138-3.938-128 43.323-151.631 45.292-21.662 116.185-23.631 151.631 39.385l261.908 517.908c3.938 7.877 9.846 9.846 15.754 11.815 66.954 1.969 133.908 25.6 175.262 82.708 59.077 76.8 59.077 179.2 9.846 254.031zM118.154-20.677c-41.354 0-74.831 33.477-74.831 72.862 1.969 41.354 35.446 74.831 74.831 74.831s74.831-33.477 74.831-72.862c0-41.354-33.477-74.831-74.831-74.831z" />
<glyph unicode="&#xea07;" glyph-name="Chevron-R" horiz-adv-x="652" d="M628.364 499.2l-488.727 437.527c-32.582 27.927-83.782 27.927-116.364 0s-32.582-74.473 0-102.4l432.873-386.327-432.873-386.327c-32.582-27.927-32.582-74.473 0-102.4 18.618-13.964 37.236-23.273 55.855-23.273s41.891 9.309 55.855 23.273l479.418 432.873c0 0 4.655 4.655 4.655 4.655s0 0 4.655 4.655c37.236 23.273 37.236 69.818 4.655 97.745z" />
<glyph unicode="&#xea08;" glyph-name="Expand-sm" d="M940.218 541.091h-335.127v335.127c0 46.545-41.891 83.782-93.091 83.782s-93.091-37.236-93.091-83.782v-335.127h-335.127c-46.545 0-83.782-41.891-83.782-93.091s37.236-93.091 83.782-93.091h335.127v-335.127c0-46.545 41.891-83.782 93.091-83.782s93.091 37.236 93.091 83.782v335.127h335.127c46.545 0 83.782 41.891 83.782 93.091s-37.236 93.091-83.782 93.091z" />
<glyph unicode="&#xea09;" glyph-name="Collapse-sm" horiz-adv-x="5632" d="M5171.2 960c256 0 460.8-230.4 460.8-512s-204.8-512-460.8-512h-4710.4c-256 0-460.8 230.4-460.8 512s204.8 512 460.8 512h4710.4z" />
<glyph unicode="&#xea0a;" glyph-name="Twitter" horiz-adv-x="1293" d="M1292.92 838.935c-48.505-21.558-99.705-35.032-153.6-40.421 53.895 32.337 97.011 83.537 115.874 142.821-51.2-29.642-107.789-51.2-169.768-61.979-48.505 51.2-118.568 80.842-194.021 80.842-145.516 0-264.084-115.874-264.084-258.695 0-21.558 2.695-40.421 8.084-59.284-220.968 10.779-414.989 113.179-547.032 269.474-21.558-37.726-35.032-83.537-35.032-129.347 0-88.926 45.811-169.768 118.568-215.579-43.116 0-83.537 13.474-121.263 32.337 0 0 0-2.695 0-2.695 0-123.958 91.621-229.053 212.884-253.305-21.558-5.389-45.811-8.084-70.063-8.084-16.168 0-35.032 2.695-51.2 5.389 35.032-102.4 132.042-177.853 247.916-180.547-91.621-70.063-204.8-110.484-328.758-110.484-21.558 0-43.116 0-61.979 2.695 118.568-72.758 256-115.874 406.905-115.874 487.747 0 754.526 393.432 754.526 735.663 0 10.779 0 21.558 0 32.337 51.2 37.726 97.011 83.537 132.042 134.737v0z" />
<glyph unicode="&#xea0b;" glyph-name="Facebook" d="M1024 790.232c0 88.926-80.842 169.768-169.768 169.768h-684.463c-88.926 0-169.768-80.842-169.768-169.768v-681.768c0-91.621 80.842-172.463 169.768-172.463h342.232v388.042h-123.958v169.768h123.958v67.368c0 115.874 86.232 218.274 191.326 218.274h137.432v-169.768h-137.432c-16.168 0-32.337-18.863-32.337-45.811v-67.368h169.768v-169.768h-169.768v-390.737h183.242c88.926 0 169.768 80.842 169.768 169.768v684.463z" />
<glyph unicode="&#xea0c;" glyph-name="Instagram" d="M921.6 960h-819.2c-56.589 0-102.4-45.811-102.4-102.4v-819.2c0-56.589 45.811-102.4 102.4-102.4h819.2c56.589 0 102.4 45.811 102.4 102.4v819.2c0 56.589-45.811 102.4-102.4 102.4zM512 652.8c113.179 0 204.8-91.621 204.8-204.8s-91.621-204.8-204.8-204.8-204.8 91.621-204.8 204.8 91.621 204.8 204.8 204.8zM129.347 38.4c-16.168 0-26.947 10.779-26.947 26.947v433.853h107.789c-5.389-16.168-5.389-35.032-5.389-51.2 0-169.768 137.432-307.2 307.2-307.2s307.2 137.432 307.2 307.2c0 16.168 0 35.032-5.389 51.2h107.789v-433.853c0-16.168-10.779-26.947-26.947-26.947h-765.305zM921.6 728.253c0-16.168-10.779-24.253-26.947-24.253h-102.4c-16.168 0-26.947 10.779-26.947 24.253v102.4c0 16.168 10.779 24.253 26.947 24.253h102.4c16.168 0 26.947-10.779 26.947-24.253v-102.4z" />
<glyph unicode="&#xea0d;" glyph-name="Close" d="M584.758 448l423.074 425.768c18.863 18.863 18.863 51.2 0 72.758-18.863 18.863-51.2 18.863-72.758 0l-423.074-425.768-425.768 423.074c-18.863 18.863-51.2 18.863-72.758 0s-18.863-51.2 0-72.758l425.768-423.074-423.074-425.768c-18.863-18.863-18.863-51.2 0-72.758 18.863-18.863 51.2-18.863 72.758 0l423.074 425.768 425.768-425.768c18.863-18.863 51.2-18.863 72.758 0 18.863 18.863 18.863 51.2 0 72.758l-425.768 425.768z" />
<glyph unicode="&#xea0e;" glyph-name="Account" horiz-adv-x="808" d="M805.726 183.916c-16.168 140.126-99.705 264.084-218.274 328.758 43.116 48.505 67.368 113.179 67.368 180.547 0 148.211-113.179 266.779-256 266.779-140.126 0-253.305-118.568-253.305-266.779 0-67.368 24.253-132.042 67.368-180.547-115.874-64.674-191.326-183.242-207.495-328.758-5.389-51.2-5.389-80.842-5.389-80.842v-5.389l2.695-2.695c105.095-102.4 242.526-156.295 385.347-156.295 8.084 0 16.168 0 24.253 0 142.821 5.389 274.863 59.284 382.653 150.905 2.695 0 2.695 2.695 2.695 2.695 8.084 8.084 13.474 24.253 8.084 91.621zM398.821 512.674c-94.316 0-172.463 80.842-172.463 180.547s78.147 180.547 172.463 180.547 172.463-80.842 172.463-180.547-75.453-180.547-172.463-180.547zM288.337 453.389c35.032-18.863 72.758-26.947 110.484-26.947s75.453 8.084 110.484 26.947c123.958-45.811 212.884-172.463 215.579-312.589-91.621-72.758-199.411-113.179-315.284-115.874v0c-121.263-5.389-234.442 35.032-328.758 113.179 2.695 142.821 86.232 269.474 207.495 315.284z" />
<glyph unicode="&#xea0f;" glyph-name="Help" d="M512 960c-282.947 0-512-229.053-512-512s229.053-512 512-512 512 229.053 512 512-229.053 512-512 512zM512 19.537c-234.442 0-428.463 191.326-428.463 428.463 0 234.442 191.326 428.463 428.463 428.463s428.463-194.021 428.463-428.463c0-234.442-194.021-428.463-428.463-428.463zM512 270.147c-18.863 0-35.032-5.389-48.505-18.863s-21.558-29.642-21.558-48.505c0-8.084 2.695-18.863 5.389-26.947s8.084-16.168 16.168-21.558c5.389-5.389 13.474-10.779 21.558-13.474s16.168-5.389 26.947-5.389c18.863 0 35.032 5.389 48.505 18.863s21.558 29.642 21.558 48.505c0 18.863-8.084 35.032-21.558 45.811-13.474 16.168-32.337 21.558-48.505 21.558zM649.432 730.947c-16.168 13.474-37.726 24.253-59.284 32.337s-45.811 10.779-70.063 10.779c-26.947 0-51.2-2.695-75.453-10.779s-43.116-18.863-61.979-35.032c-18.863-16.168-32.337-32.337-43.116-56.589s-18.863-45.811-21.558-75.453l107.789-10.779c0 10.779 2.695 24.253 8.084 35.032s10.779 21.558 18.863 29.642c8.084 8.084 16.168 16.168 26.947 18.863 10.779 5.389 21.558 8.084 35.032 8.084 26.947 0 45.811-8.084 59.284-24.253s21.558-35.032 21.558-56.589c0-16.168-2.695-32.337-10.779-43.116-8.084-13.474-16.168-24.253-29.642-32.337l-40.421-37.726c-10.779-10.779-18.863-21.558-26.947-29.642s-13.474-18.863-16.168-29.642c-5.389-10.779-8.084-21.558-10.779-32.337s-2.695-24.253-2.695-37.726v-32.337h102.4v21.558c0 13.474 0 24.253 2.695 32.337s5.389 16.168 8.084 24.253c5.389 8.084 10.779 16.168 16.168 21.558 8.084 8.084 16.168 16.168 29.642 26.947s24.253 21.558 35.032 32.337c10.779 10.779 18.863 21.558 26.947 32.337s13.474 24.253 16.168 37.726c5.389 13.474 5.389 29.642 5.389 48.505 0 26.947-5.389 51.2-13.474 72.758-5.389 26.947-18.863 43.116-37.726 59.284z" />
<glyph unicode="&#xea10;" glyph-name="Chevron-L" horiz-adv-x="652" d="M23.273 499.2l488.727 437.527c32.582 27.927 83.782 27.927 116.364 0s32.582-74.473 0-102.4l-432.873-386.327 432.873-386.327c32.582-27.927 32.582-74.473 0-102.4-13.964-13.964-37.236-23.273-55.855-23.273s-41.891 9.309-55.855 23.273l-484.073 428.218c0 0-4.655 4.655-4.655 4.655s0 0-4.655 4.655c-32.582 27.927-32.582 74.473 0 102.4z" />
<glyph unicode="&#xea11;" glyph-name="Wishlist" horiz-adv-x="1109" d="M1015.467 870.4l-46.933 38.4c-51.2 34.133-106.667 51.2-166.4 51.2-93.867 0-183.467-46.933-247.467-123.733-64 76.8-153.6 123.733-247.467 123.733-59.733 0-115.2-17.067-166.4-51.2l-46.933-38.4c-64-64-93.867-149.333-93.867-247.467 0-89.6 51.2-328.533 520.533-661.333 4.267-4.267 29.867-21.333 29.867-21.333l4.267-4.267 4.267 4.267c0 0 29.867 21.333 29.867 21.333 469.333 332.8 520.533 571.733 520.533 661.333 0 98.133-29.867 183.467-93.867 247.467zM597.333 721.067c0 0 4.267 8.533 4.267 8.533 46.933 81.067 119.467 128 200.533 128 102.4 0 204.8-81.067 204.8-234.667 0-192-294.4-448-452.267-558.933-162.133 106.667-456.533 362.667-452.267 558.933 0 153.6 102.4 234.667 204.8 234.667 81.067 0 153.6-46.933 200.533-123.733l46.933-98.133 42.667 85.333z" />
<glyph unicode="&#xea12;" glyph-name="Remove" horiz-adv-x="973" d="M591.36 104.96c28.16 0 51.2 20.48 51.2 48.64v430.080c0 28.16-23.040 48.64-51.2 48.64s-51.2-20.48-51.2-48.64v-427.52c0-28.16 23.040-51.2 51.2-51.2zM921.6 803.84h-258.56v107.52c0 25.6-23.040 48.64-51.2 48.64h-253.44c-28.16 0-51.2-20.48-51.2-48.64v-107.52h-256c-28.16 0-51.2-23.040-51.2-48.64s23.040-48.64 51.2-48.64h69.12v-698.88c0-38.4 33.28-69.12 74.24-69.12h583.68c40.96 0 74.24 33.28 74.24 69.12v698.88h69.12c28.16 0 51.2 20.48 51.2 48.64s-23.040 48.64-51.2 48.64zM563.2 862.72v-53.76h-153.6v53.76h153.6zM750.080 706.56v-673.28h-527.36v673.28h527.36zM381.44 104.96c28.16 0 51.2 20.48 51.2 48.64v430.080c0 28.16-23.040 48.64-51.2 48.64s-51.2-20.48-51.2-48.64v-427.52c2.56-28.16 25.6-51.2 51.2-51.2z" />
<glyph unicode="&#xea13;" glyph-name="More" d="M956.632 380.632c37.726 0 67.368 29.642 67.368 67.368s-29.642 67.368-67.368 67.368h-889.263c-37.726 0-67.368-29.642-67.368-67.368s29.642-67.368 67.368-67.368h889.263zM579.368 892.632c0 37.726-29.642 67.368-67.368 67.368s-67.368-29.642-67.368-67.368v-886.568c0-37.726 29.642-67.368 67.368-67.368s67.368 29.642 67.368 67.368v886.568z" />
<glyph unicode="&#xea14;" glyph-name="Less" horiz-adv-x="7782" d="M7270.4-64c286.72 0 512 225.28 512 512s-225.28 512-512 512h-6758.4c-286.72 0-512-225.28-512-512s225.28-512 512-512h6758.4z" />
<glyph unicode="&#xea15;" glyph-name="Tick" horiz-adv-x="1126" d="M404.48-64c-20.48 0-40.96 5.12-51.2 20.48l-327.68 332.8c-30.72 30.72-30.72 76.8 0 107.52s76.8 30.72 107.52 0l240.64-168.96c15.36-10.24 35.84-10.24 46.080 5.12l568.32 696.32c25.6 35.84 71.68 40.96 107.52 15.36s40.96-71.68 15.36-107.52l-645.12-870.4c-15.36-15.36-30.72-30.72-56.32-30.72 0 0 0 0-5.12 0z" />
<glyph unicode="&#xea16;" glyph-name="Share" horiz-adv-x="1331" d="M798.72-64v256c0 0-532.48 128-798.72-256 0 424.96 358.4 768 798.72 768v256l532.48-512-532.48-512z" />
<glyph unicode="&#xea17;" glyph-name="Star" horiz-adv-x="1126" d="M1126.4 576v0c-5.12 15.36-20.48 40.96-61.44 46.080l-302.080 40.96-133.12 256c-15.36 25.6-40.96 40.96-66.56 40.96-15.36 0-40.96-5.12-66.56-40.96l-133.12-256-296.96-40.96c-35.84-5.12-56.32-25.6-61.44-46.080-10.24-15.36-10.24-46.080 25.6-76.8l215.040-199.68-51.2-281.6c-10.24-30.72 0-51.2 10.24-61.44 20.48-20.48 51.2-25.6 81.92-15.36 5.12 0 5.12 5.12 10.24 5.12l266.24 133.12 271.36-138.24c15.36-5.12 30.72-10.24 40.96-10.24 15.36 0 30.72 5.12 46.080 20.48 10.24 10.24 20.48 25.6 15.36 56.32l-51.2 291.84 220.16 204.8c15.36 20.48 25.6 46.080 20.48 71.68z" />
<glyph unicode="&#xea18;" glyph-name="Chevron-D" horiz-adv-x="1843" d="M829.44-23.040l-788.48 768c-51.2 51.2-51.2 133.12 0 184.32s133.12 51.2 184.32 0l696.32-686.080 696.32 675.84c51.2 51.2 133.12 51.2 184.32 0 30.72-20.48 40.96-51.2 40.96-81.92s-10.24-61.44-40.96-92.16l-778.24-757.76c0 0-10.24-10.24-10.24-10.24s0 0 0-10.24c-51.2-40.96-133.12-40.96-184.32 10.24z" />
<glyph unicode="&#xea19;" glyph-name="Double-tap" horiz-adv-x="899" d="M29.971 697.756c-6.244 0-13.737 2.498-18.732 6.244-12.488 9.99-14.985 29.971-4.995 42.459 109.893 136.117 270.985 213.541 443.317 213.541s333.424-77.424 443.317-213.541c9.99-12.488 8.741-32.468-4.995-42.459-12.488-9.99-31.22-8.741-42.459 4.995-97.405 121.132-241.015 191.063-395.863 191.063s-298.459-69.932-395.863-191.063c-6.244-7.493-14.985-11.239-23.727-11.239zM29.971 358.088c-16.234 0-29.971 13.737-29.971 29.971 0 248.507 202.302 452.059 449.561 452.059s449.561-202.302 449.561-452.059c0-16.234-13.737-29.971-29.971-29.971s-29.971 13.737-29.971 29.971c0 216.039-174.829 392.117-389.62 392.117s-389.62-176.078-389.62-392.117c0-17.483-13.737-29.971-29.971-29.971zM449.561 236.956c-179.824 0-153.6 219.785-153.6 219.785s31.22 69.932 153.6 69.932c122.38 0 154.849-69.932 154.849-69.932s24.976-219.785-154.849-219.785zM449.561 599.102c-188.566 0-243.512-171.083-243.512-571.941v-17.483c69.932-47.454 153.6-73.678 243.512-73.678s173.58 26.224 243.512 72.429v17.483c0 402.107-54.946 573.19-243.512 573.19z" />
</font>
</defs>
</svg>
